<svg version="1" xmlns="http://www.w3.org/2000/svg" width="413.333" height="413.333" viewBox="0 0 310.000000 310.000000"><path d="M0 155v155h310V0H0v155zM182 42.9c15.9 4 28.4 9.9 41 19.2 19.7 14.5 33.5 33.3 40.9 55.7 4.9 14.7 5.6 19.5 5.6 37.7-.1 17.2-.8 23-4.6 35-7.6 23.8-25.1 47.3-45.4 60.7-9 5.9-16.7 9.6-17.2 8.2-.5-1.4-3.3-5.2-16-21.8-6.2-8-11.3-14.7-11.3-14.9 0-.2 1.8-.9 4.1-1.6 14.8-4.4 30.7-19.1 38.5-35.6 5.3-11.2 6.7-18 6.2-31.9-.3-10.4-.9-13.6-3.8-22.6-4.2-13.2-6.3-16.6-16.4-26.5C190.1 91.2 174 84.7 155 84.7s-35.1 6.5-48.6 19.8c-4.5 4.4-9.3 9.9-10.7 12.2-14.5 23.3-14.3 55.5.6 77.3 7.8 11.4 19.3 20.9 31.7 26.1 3.6 1.5 6.4 3.1 6.3 3.4-.1.3-5 6.9-11 14.7-12.5 16.2-15.1 19.8-15.6 21.2-.5 1.4-8.2-2.3-17.2-8.2-20.3-13.4-37.8-36.9-45.4-60.7-3.8-12-4.5-17.8-4.6-35 0-18.2.7-23 5.6-37.7 12.4-37.6 44.4-66.4 83.4-75.2 10.3-2.3 12.5-2.5 29.5-2 10.8.3 17.8.9 23 2.3zm-22.3 192.9c2.3 3.1 8.5 11.3 13.7 18.2 11 14.1 11.1 13.1-1.9 14.9-12.7 1.8-38.8.7-43.2-1.7-1-.6 1-3.9 8.3-13.3 5.2-6.8 11.4-15 13.7-18.1 2.3-3.2 4.4-5.7 4.7-5.7.3 0 2.4 2.5 4.7 5.7z"/></svg>